HIERARCHY
ROOT Hips
{
	OFFSET -13.091600 -28.302996 44.698402
	CHANNELS 6 Xposition Yposition Zposition Zrotation Xrotation Yrotation
	JOINT Chest
	{
		OFFSET -0.673000 0.623899 5.369202
		CHANNELS 6 Xposition Yposition Zposition Zrotation Xrotation Yrotation
		JOINT Chest2
		{
			OFFSET 0.000000 0.000000 4.415001
			CHANNELS 6 Xposition Yposition Zposition Zrotation Xrotation Yrotation
			JOINT Neck
			{
				OFFSET 0.000000 0.000002 10.273300
				CHANNELS 6 Xposition Yposition Zposition Zrotation Xrotation Yrotation
				JOINT Head
				{
					OFFSET 0.000000 0.000000 2.173897
					CHANNELS 6 Xposition Yposition Zposition Zrotation Xrotation Yrotation
					End Site
					{
						OFFSET 0.000000 0.000000 9.961800
					}
				}
			}
			JOINT LeftCollar
			{
				OFFSET 2.359900 -0.565201 5.928101
				CHANNELS 6 Xposition Yposition Zposition Zrotation Xrotation Yrotation
				JOINT LeftShoulder
				{
					OFFSET 5.443700 0.000000 0.000000
					CHANNELS 6 Xposition Yposition Zposition Zrotation Xrotation Yrotation
					JOINT LeftElbow
					{
						OFFSET 0.000000 0.000000 -10.615799
						CHANNELS 6 Xposition Yposition Zposition Zrotation Xrotation Yrotation
						JOINT LeftWrist
						{
							OFFSET 0.000000 -0.000002 -13.110302
							CHANNELS 6 Xposition Yposition Zposition Zrotation Xrotation Yrotation
							End Site
							{
								OFFSET 0.000000 0.000000 -2.173901
							}
						}
					}
				}
			}
			JOINT RightCollar
			{
				OFFSET -2.636600 -1.718800 6.889698
				CHANNELS 6 Xposition Yposition Zposition Zrotation Xrotation Yrotation
				JOINT RightShoulder
				{
					OFFSET -4.139101 0.000000 0.000000
					CHANNELS 6 Xposition Yposition Zposition Zrotation Xrotation Yrotation
					JOINT RightElbow
					{
						OFFSET 0.000000 0.000000 -10.471802
						CHANNELS 6 Xposition Yposition Zposition Zrotation Xrotation Yrotation
						JOINT RightWrist
						{
							OFFSET 0.000000 0.000000 -12.281898
							CHANNELS 6 Xposition Yposition Zposition Zrotation Xrotation Yrotation
							End Site
							{
								OFFSET 0.000000 -0.000002 -2.173901
							}
						}
					}
				}
			}
		}
	}
	JOINT LeftHip
	{
		OFFSET 2.273400 0.176701 -2.518002
		CHANNELS 6 Xposition Yposition Zposition Zrotation Xrotation Yrotation
		JOINT LeftKnee
		{
			OFFSET 0.000000 -0.000002 -20.456402
			CHANNELS 6 Xposition Yposition Zposition Zrotation Xrotation Yrotation
			JOINT LeftAnkle
			{
				OFFSET 0.000000 -0.000002 -16.635300
				CHANNELS 6 Xposition Yposition Zposition Zrotation Xrotation Yrotation
				End Site
				{
					OFFSET 0.000000 -8.812399 0.000001
				}
			}
		}
	}
	JOINT RightHip
	{
		OFFSET -1.914800 0.018101 -2.699299
		CHANNELS 6 Xposition Yposition Zposition Zrotation Xrotation Yrotation
		JOINT RightKnee
		{
			OFFSET 0.000000 -0.000002 -20.148901
			CHANNELS 6 Xposition Yposition Zposition Zrotation Xrotation Yrotation
			JOINT RightAnkle
			{
				OFFSET 0.000000 -0.000002 -16.838301
				CHANNELS 6 Xposition Yposition Zposition Zrotation Xrotation Yrotation
				End Site
				{
					OFFSET 0.000000 -8.328398 0.000001
				}
			}
		}
	}
}
MOTION
Frames: 4
Frame Time: 0.041667
-35.676903 21.287012 43.974098 1415.788167 -2.773491 10.526876 -0.673004 0.623900 5.369214 25.142789 24.197752 7.504221 0.000002 0.000003 4.415004 -22.430471 -2.373879 -2.115392 0.000002 -0.000003 10.273296 52.271807 9.590329 -21.918847 -0.000002 -0.000007 2.173892 2.063573 -1.887358 3.915687 2.359900 -0.565207 5.928096 -0.576813 1.880135 3.997897 5.443702 -0.000001 0.000001 -7.970418 3.747126 -53.905035 0.000003 0.000001 -10.615809 589.750498 -168.835569 181.901202 -0.000004 0.000003 -13.110310 -41.724092 -362.211926 271.475540 -2.636602 -1.718804 6.889696 184.430913 -182.248367 188.570089 -4.139110 -0.000005 -0.000006 380.397578 -372.641324 450.272517 -0.000003 0.000005 -10.471786 32.054863 -122.980056 -362.397270 -0.000003 -0.000002 -12.281885 377.299486 17.463120 84.307798 2.273395 0.176698 -2.517999 -53.930221 -135.641601 -148.544265 0.000000 -0.000005 -20.456404 176.766129 170.692957 -204.445539 0.000005 -0.000000 -16.635294 -120.692161 70.651292 57.116566 -1.914805 0.018104 -2.699289 163.598986 181.905040 170.660896 0.000001 -0.000000 -20.148901 6.640710 21.364466 -11.028324 0.000007 -0.000004 -16.838299 11.511533 25.093925 -8.305406
-35.678902 21.270407 43.975403 1415.784998 -2.821273 10.499528 -0.673003 0.623892 5.369213 25.147696 24.271800 7.534739 0.000005 0.000005 4.415006 -22.509763 -2.410635 -2.133214 0.000003 -0.000003 10.273294 52.280969 9.605689 -21.911324 -0.000003 0.000000 2.173892 2.079910 -1.917591 3.873290 2.359895 -0.565203 5.928095 -0.533170 1.844128 4.090644 5.443699 -0.000007 0.000005 -7.985966 3.871229 -54.039289 -0.000001 -0.000000 -10.615805 589.790113 -168.871318 181.906324 -0.000005 -0.000001 -13.110300 -41.644797 -362.179359 271.501495 -2.636601 -1.718804 6.889699 184.522847 -182.402756 188.442897 -4.139097 -0.000002 -0.000001 380.340641 -372.542942 450.458352 -0.000008 0.000007 -10.471790 31.739619 -122.987542 -362.516088 0.000001 0.000001 -12.281884 377.277957 17.379526 84.211506 2.273395 0.176698 -2.517998 -53.566633 -135.747701 -148.379781 -0.000002 -0.000008 -20.456394 176.806441 170.791216 -204.419939 0.000005 -0.000003 -16.635290 -121.116603 70.628527 57.335449 -1.914806 0.018097 -2.699291 163.621129 181.846232 170.702615 0.000002 -0.000001 -20.148909 6.549133 21.359559 -10.979507 0.000002 -0.000003 -16.838301 11.611607 25.112222 -8.353999
-35.681900 21.255312 43.977299 1415.793850 -2.856710 10.479324 -0.672993 0.623898 5.369209 25.140045 24.332945 7.559224 -0.000000 0.000003 4.415007 -22.603048 -2.465088 -2.157038 0.000003 0.000005 10.273300 52.310271 9.635121 -21.918415 -0.000001 -0.000006 2.173895 2.092185 -1.937771 3.851722 2.359897 -0.565200 5.928103 -0.505528 1.814484 4.249669 5.443704 -0.000006 -0.000003 -7.983770 4.105659 -54.185349 -0.000004 0.000001 -10.615798 589.855738 -168.798700 181.922375 -0.000004 0.000002 -13.110306 -41.521116 -362.085458 271.586189 -2.636604 -1.718803 6.889709 184.638291 -182.633999 188.267362 -4.139101 -0.000003 0.000004 380.275618 -372.483820 450.719266 -0.000003 0.000015 -10.471792 31.378132 -122.990206 -362.662363 0.000004 -0.000000 -12.281881 377.213371 17.358600 84.115392 2.273400 0.176702 -2.518005 -53.280984 -135.830073 -148.248955 0.000002 -0.000006 -20.456402 176.823694 170.847032 -204.398998 0.000004 0.000002 -16.635290 -121.363623 70.615673 57.433654 -1.914796 0.018106 -2.699296 163.638970 181.800798 170.731302 -0.000005 -0.000005 -20.148901 6.464161 21.366061 -10.932118 0.000004 -0.000005 -16.838301 11.690882 25.121325 -8.401609
-35.685501 21.242010 43.979500 1415.813630 -2.880965 10.463655 -0.673000 0.623896 5.369210 25.120734 24.383237 7.578535 0.000002 0.000007 4.415009 -22.700641 -2.505127 -2.177816 0.000003 -0.000003 10.273294 52.337557 9.656485 -21.919219 -0.000003 -0.000005 2.173897 2.108277 -1.946535 3.848703 2.359898 -0.565202 5.928094 -0.434067 1.725183 4.331163 5.443701 -0.000003 -0.000001 -7.940404 4.278518 -54.215292 -0.000002 -0.000001 -10.615796 589.776999 -168.689512 181.927826 -0.000005 0.000001 -13.110302 -41.466430 -361.965629 271.718422 -2.636599 -1.718800 6.889706 184.729392 -182.751574 188.196314 -4.139102 -0.000008 0.000013 380.204584 -372.425490 450.839914 -0.000013 0.000006 -10.471787 31.002294 -123.001434 -362.856149 0.000006 0.000003 -12.281895 377.108732 17.399632 84.028614 2.273395 0.176701 -2.518002 -53.146726 -135.868882 -148.203931 -0.000002 -0.000007 -20.456408 176.814268 170.842852 -204.383493 0.000006 -0.000003 -16.635290 -121.337505 70.615830 57.366103 -1.914794 0.018108 -2.699301 163.651032 181.770144 170.748623 0.000007 -0.000005 -20.148903 6.380016 21.386502 -10.882670 -0.000001 -0.000006 -16.838301 11.756618 25.121673 -8.445210
